<mxfile host="app.diagrams.net" agent="Mozilla/5.0 (Windows NT 10.0; Win64; x64; rv:144.0) Gecko/20100101 Firefox/144.0" version="28.2.7">
  <diagram name="Страница — 1" id="Jzx1l-i0TkHVM1JDDYEb">
    <mxGraphModel dx="1215" dy="1133" grid="1" gridSize="10" guides="1" tooltips="1" connect="1" arrows="1" fold="1" page="1" pageScale="1" pageWidth="850" pageHeight="1100" math="0" shadow="0">
      <root>
        <mxCell id="0" />
        <mxCell id="1" parent="0" />
        <mxCell id="nGtpQXwKpqpgP6k6MlAX-1" value="Начало" style="strokeWidth=2;html=1;shape=mxgraph.flowchart.terminator;whiteSpace=wrap;" vertex="1" parent="1">
          <mxGeometry x="40" y="40" width="200" height="40" as="geometry" />
        </mxCell>
        <mxCell id="nGtpQXwKpqpgP6k6MlAX-2" value="Если прошлое число больше текущего" style="strokeWidth=2;html=1;shape=mxgraph.flowchart.decision;whiteSpace=wrap;" vertex="1" parent="1">
          <mxGeometry x="40" y="480" width="200" height="80" as="geometry" />
        </mxCell>
        <mxCell id="nGtpQXwKpqpgP6k6MlAX-4" value="" style="endArrow=none;html=1;rounded=0;entryX=0.5;entryY=1;entryDx=0;entryDy=0;entryPerimeter=0;exitX=0.5;exitY=0;exitDx=0;exitDy=0;" edge="1" parent="1">
          <mxGeometry width="50" height="50" relative="1" as="geometry">
            <mxPoint x="139.76" y="190" as="sourcePoint" />
            <mxPoint x="139.76" y="170" as="targetPoint" />
          </mxGeometry>
        </mxCell>
        <mxCell id="nGtpQXwKpqpgP6k6MlAX-21" value="Ввод массива чисел" style="rounded=0;whiteSpace=wrap;html=1;" vertex="1" parent="1">
          <mxGeometry x="40" y="120" width="200" height="80" as="geometry" />
        </mxCell>
        <mxCell id="nGtpQXwKpqpgP6k6MlAX-27" value="Конец" style="strokeWidth=2;html=1;shape=mxgraph.flowchart.terminator;whiteSpace=wrap;" vertex="1" parent="1">
          <mxGeometry x="40" y="960" width="200" height="40" as="geometry" />
        </mxCell>
        <mxCell id="nGtpQXwKpqpgP6k6MlAX-74" value="проход по числам массива" style="strokeWidth=2;html=1;shape=mxgraph.flowchart.loop_limit;whiteSpace=wrap;" vertex="1" parent="1">
          <mxGeometry x="40" y="240" width="200" height="80" as="geometry" />
        </mxCell>
        <mxCell id="nGtpQXwKpqpgP6k6MlAX-75" value="проход по числам массива с прибавкой 1 к индексу" style="strokeWidth=2;html=1;shape=mxgraph.flowchart.loop_limit;whiteSpace=wrap;" vertex="1" parent="1">
          <mxGeometry x="40" y="360" width="200" height="80" as="geometry" />
        </mxCell>
        <mxCell id="nGtpQXwKpqpgP6k6MlAX-76" value="Поменять местами наибольшее и наименьшее число" style="rounded=0;whiteSpace=wrap;html=1;" vertex="1" parent="1">
          <mxGeometry x="40" y="600" width="200" height="80" as="geometry" />
        </mxCell>
        <mxCell id="nGtpQXwKpqpgP6k6MlAX-77" value="" style="strokeWidth=2;html=1;shape=mxgraph.flowchart.loop_limit;whiteSpace=wrap;rotation=-180;" vertex="1" parent="1">
          <mxGeometry x="40" y="720" width="200" height="80" as="geometry" />
        </mxCell>
        <mxCell id="nGtpQXwKpqpgP6k6MlAX-78" value="Конец цикла" style="text;html=1;whiteSpace=wrap;strokeColor=none;fillColor=none;align=center;verticalAlign=middle;rounded=0;" vertex="1" parent="1">
          <mxGeometry x="110" y="745" width="60" height="30" as="geometry" />
        </mxCell>
        <mxCell id="nGtpQXwKpqpgP6k6MlAX-79" value="" style="strokeWidth=2;html=1;shape=mxgraph.flowchart.loop_limit;whiteSpace=wrap;rotation=-180;" vertex="1" parent="1">
          <mxGeometry x="40" y="840" width="200" height="80" as="geometry" />
        </mxCell>
        <mxCell id="nGtpQXwKpqpgP6k6MlAX-80" value="Конец цикла" style="text;html=1;whiteSpace=wrap;strokeColor=none;fillColor=none;align=center;verticalAlign=middle;rounded=0;" vertex="1" parent="1">
          <mxGeometry x="110" y="865" width="60" height="30" as="geometry" />
        </mxCell>
        <mxCell id="nGtpQXwKpqpgP6k6MlAX-81" value="" style="endArrow=none;html=1;rounded=0;entryX=0.5;entryY=0;entryDx=0;entryDy=0;entryPerimeter=0;exitX=0.5;exitY=1;exitDx=0;exitDy=0;exitPerimeter=0;" edge="1" parent="1" source="nGtpQXwKpqpgP6k6MlAX-79" target="nGtpQXwKpqpgP6k6MlAX-77">
          <mxGeometry width="50" height="50" relative="1" as="geometry">
            <mxPoint x="30" y="860" as="sourcePoint" />
            <mxPoint x="80" y="810" as="targetPoint" />
          </mxGeometry>
        </mxCell>
        <mxCell id="nGtpQXwKpqpgP6k6MlAX-82" value="" style="endArrow=none;html=1;rounded=0;entryX=0.5;entryY=0;entryDx=0;entryDy=0;entryPerimeter=0;exitX=0.5;exitY=1;exitDx=0;exitDy=0;exitPerimeter=0;" edge="1" parent="1">
          <mxGeometry width="50" height="50" relative="1" as="geometry">
            <mxPoint x="139.83" y="960" as="sourcePoint" />
            <mxPoint x="139.83" y="920" as="targetPoint" />
          </mxGeometry>
        </mxCell>
        <mxCell id="nGtpQXwKpqpgP6k6MlAX-83" value="" style="endArrow=none;html=1;rounded=0;entryX=0.5;entryY=0;entryDx=0;entryDy=0;entryPerimeter=0;exitX=0.5;exitY=1;exitDx=0;exitDy=0;exitPerimeter=0;" edge="1" parent="1">
          <mxGeometry width="50" height="50" relative="1" as="geometry">
            <mxPoint x="139.82999999999998" y="720" as="sourcePoint" />
            <mxPoint x="139.82999999999998" y="680" as="targetPoint" />
          </mxGeometry>
        </mxCell>
        <mxCell id="nGtpQXwKpqpgP6k6MlAX-84" value="" style="endArrow=none;html=1;rounded=0;entryX=0.5;entryY=0;entryDx=0;entryDy=0;entryPerimeter=0;exitX=0.5;exitY=1;exitDx=0;exitDy=0;exitPerimeter=0;" edge="1" parent="1">
          <mxGeometry width="50" height="50" relative="1" as="geometry">
            <mxPoint x="139.83" y="600" as="sourcePoint" />
            <mxPoint x="139.83" y="560" as="targetPoint" />
          </mxGeometry>
        </mxCell>
        <mxCell id="nGtpQXwKpqpgP6k6MlAX-85" value="" style="endArrow=none;html=1;rounded=0;entryX=0.5;entryY=0;entryDx=0;entryDy=0;entryPerimeter=0;exitX=0.5;exitY=1;exitDx=0;exitDy=0;exitPerimeter=0;" edge="1" parent="1">
          <mxGeometry width="50" height="50" relative="1" as="geometry">
            <mxPoint x="139.82999999999998" y="480" as="sourcePoint" />
            <mxPoint x="139.82999999999998" y="440" as="targetPoint" />
          </mxGeometry>
        </mxCell>
        <mxCell id="nGtpQXwKpqpgP6k6MlAX-86" value="" style="endArrow=none;html=1;rounded=0;entryX=0.5;entryY=0;entryDx=0;entryDy=0;entryPerimeter=0;exitX=0.5;exitY=1;exitDx=0;exitDy=0;exitPerimeter=0;" edge="1" parent="1">
          <mxGeometry width="50" height="50" relative="1" as="geometry">
            <mxPoint x="139.82999999999998" y="360" as="sourcePoint" />
            <mxPoint x="139.82999999999998" y="320" as="targetPoint" />
          </mxGeometry>
        </mxCell>
        <mxCell id="nGtpQXwKpqpgP6k6MlAX-87" value="" style="endArrow=none;html=1;rounded=0;entryX=0.5;entryY=0;entryDx=0;entryDy=0;entryPerimeter=0;exitX=0.5;exitY=1;exitDx=0;exitDy=0;exitPerimeter=0;" edge="1" parent="1">
          <mxGeometry width="50" height="50" relative="1" as="geometry">
            <mxPoint x="139.82999999999998" y="240" as="sourcePoint" />
            <mxPoint x="139.82999999999998" y="200" as="targetPoint" />
          </mxGeometry>
        </mxCell>
        <mxCell id="nGtpQXwKpqpgP6k6MlAX-88" value="" style="endArrow=none;html=1;rounded=0;entryX=0.5;entryY=0;entryDx=0;entryDy=0;entryPerimeter=0;exitX=0.5;exitY=1;exitDx=0;exitDy=0;exitPerimeter=0;" edge="1" parent="1">
          <mxGeometry width="50" height="50" relative="1" as="geometry">
            <mxPoint x="139.83" y="120" as="sourcePoint" />
            <mxPoint x="139.83" y="80" as="targetPoint" />
          </mxGeometry>
        </mxCell>
        <mxCell id="nGtpQXwKpqpgP6k6MlAX-89" value="Начало" style="strokeWidth=2;html=1;shape=mxgraph.flowchart.terminator;whiteSpace=wrap;" vertex="1" parent="1">
          <mxGeometry x="400" y="40" width="200" height="40" as="geometry" />
        </mxCell>
        <mxCell id="nGtpQXwKpqpgP6k6MlAX-90" value="Ввод матрицы" style="rounded=0;whiteSpace=wrap;html=1;" vertex="1" parent="1">
          <mxGeometry x="400" y="120" width="200" height="80" as="geometry" />
        </mxCell>
        <mxCell id="nGtpQXwKpqpgP6k6MlAX-91" value="Проход по столбцам матрицы" style="strokeWidth=2;html=1;shape=mxgraph.flowchart.loop_limit;whiteSpace=wrap;" vertex="1" parent="1">
          <mxGeometry x="400" y="240" width="200" height="80" as="geometry" />
        </mxCell>
        <mxCell id="nGtpQXwKpqpgP6k6MlAX-92" value="проход по рядам матрицы" style="strokeWidth=2;html=1;shape=mxgraph.flowchart.loop_limit;whiteSpace=wrap;" vertex="1" parent="1">
          <mxGeometry x="400" y="360" width="200" height="80" as="geometry" />
        </mxCell>
        <mxCell id="nGtpQXwKpqpgP6k6MlAX-93" value="Если число отрицательное" style="strokeWidth=2;html=1;shape=mxgraph.flowchart.decision;whiteSpace=wrap;" vertex="1" parent="1">
          <mxGeometry x="400" y="480" width="200" height="80" as="geometry" />
        </mxCell>
        <mxCell id="nGtpQXwKpqpgP6k6MlAX-94" value="Умножить на -1" style="rounded=0;whiteSpace=wrap;html=1;" vertex="1" parent="1">
          <mxGeometry x="400" y="600" width="200" height="80" as="geometry" />
        </mxCell>
        <mxCell id="nGtpQXwKpqpgP6k6MlAX-95" value="" style="strokeWidth=2;html=1;shape=mxgraph.flowchart.loop_limit;whiteSpace=wrap;rotation=-180;" vertex="1" parent="1">
          <mxGeometry x="400" y="720" width="200" height="80" as="geometry" />
        </mxCell>
        <mxCell id="nGtpQXwKpqpgP6k6MlAX-96" value="" style="strokeWidth=2;html=1;shape=mxgraph.flowchart.loop_limit;whiteSpace=wrap;rotation=-180;" vertex="1" parent="1">
          <mxGeometry x="400" y="840" width="200" height="80" as="geometry" />
        </mxCell>
        <mxCell id="nGtpQXwKpqpgP6k6MlAX-97" value="Конец цикла" style="text;html=1;whiteSpace=wrap;strokeColor=none;fillColor=none;align=center;verticalAlign=middle;rounded=0;" vertex="1" parent="1">
          <mxGeometry x="470" y="745" width="60" height="30" as="geometry" />
        </mxCell>
        <mxCell id="nGtpQXwKpqpgP6k6MlAX-98" value="Конец цикла" style="text;html=1;whiteSpace=wrap;strokeColor=none;fillColor=none;align=center;verticalAlign=middle;rounded=0;" vertex="1" parent="1">
          <mxGeometry x="470" y="865" width="60" height="30" as="geometry" />
        </mxCell>
        <mxCell id="nGtpQXwKpqpgP6k6MlAX-99" value="A" style="strokeWidth=2;html=1;shape=mxgraph.flowchart.start_2;whiteSpace=wrap;" vertex="1" parent="1">
          <mxGeometry x="480" y="960" width="40" height="40" as="geometry" />
        </mxCell>
        <mxCell id="nGtpQXwKpqpgP6k6MlAX-100" value="" style="endArrow=none;html=1;rounded=0;entryX=0.5;entryY=0;entryDx=0;entryDy=0;entryPerimeter=0;exitX=0.5;exitY=0;exitDx=0;exitDy=0;exitPerimeter=0;" edge="1" parent="1" source="nGtpQXwKpqpgP6k6MlAX-99" target="nGtpQXwKpqpgP6k6MlAX-96">
          <mxGeometry width="50" height="50" relative="1" as="geometry">
            <mxPoint x="440" y="1000" as="sourcePoint" />
            <mxPoint x="490" y="950" as="targetPoint" />
          </mxGeometry>
        </mxCell>
        <mxCell id="nGtpQXwKpqpgP6k6MlAX-101" value="A" style="strokeWidth=2;html=1;shape=mxgraph.flowchart.start_2;whiteSpace=wrap;" vertex="1" parent="1">
          <mxGeometry x="720" y="40" width="40" height="40" as="geometry" />
        </mxCell>
        <mxCell id="nGtpQXwKpqpgP6k6MlAX-102" value="Проход по столбцам матрицы" style="strokeWidth=2;html=1;shape=mxgraph.flowchart.loop_limit;whiteSpace=wrap;" vertex="1" parent="1">
          <mxGeometry x="640" y="120" width="200" height="80" as="geometry" />
        </mxCell>
        <mxCell id="nGtpQXwKpqpgP6k6MlAX-103" value="проход по рядам матрицы" style="strokeWidth=2;html=1;shape=mxgraph.flowchart.loop_limit;whiteSpace=wrap;" vertex="1" parent="1">
          <mxGeometry x="640" y="240" width="200" height="80" as="geometry" />
        </mxCell>
        <mxCell id="nGtpQXwKpqpgP6k6MlAX-104" value="" style="strokeWidth=2;html=1;shape=mxgraph.flowchart.loop_limit;whiteSpace=wrap;rotation=-180;" vertex="1" parent="1">
          <mxGeometry x="640" y="480" width="200" height="80" as="geometry" />
        </mxCell>
        <mxCell id="nGtpQXwKpqpgP6k6MlAX-105" value="" style="strokeWidth=2;html=1;shape=mxgraph.flowchart.loop_limit;whiteSpace=wrap;rotation=-180;" vertex="1" parent="1">
          <mxGeometry x="640" y="600" width="200" height="80" as="geometry" />
        </mxCell>
        <mxCell id="nGtpQXwKpqpgP6k6MlAX-106" value="Конец цикла" style="text;html=1;whiteSpace=wrap;strokeColor=none;fillColor=none;align=center;verticalAlign=middle;rounded=0;" vertex="1" parent="1">
          <mxGeometry x="710" y="505" width="60" height="30" as="geometry" />
        </mxCell>
        <mxCell id="nGtpQXwKpqpgP6k6MlAX-107" value="Конец цикла" style="text;html=1;whiteSpace=wrap;strokeColor=none;fillColor=none;align=center;verticalAlign=middle;rounded=0;" vertex="1" parent="1">
          <mxGeometry x="710" y="625" width="60" height="30" as="geometry" />
        </mxCell>
        <mxCell id="nGtpQXwKpqpgP6k6MlAX-108" value="Вывод числа" style="rounded=0;whiteSpace=wrap;html=1;" vertex="1" parent="1">
          <mxGeometry x="640" y="360" width="200" height="80" as="geometry" />
        </mxCell>
        <mxCell id="nGtpQXwKpqpgP6k6MlAX-109" value="Конец" style="strokeWidth=2;html=1;shape=mxgraph.flowchart.terminator;whiteSpace=wrap;" vertex="1" parent="1">
          <mxGeometry x="640" y="720" width="200" height="40" as="geometry" />
        </mxCell>
        <mxCell id="nGtpQXwKpqpgP6k6MlAX-110" value="" style="endArrow=none;html=1;rounded=0;entryX=0.5;entryY=0;entryDx=0;entryDy=0;entryPerimeter=0;exitX=0.5;exitY=0;exitDx=0;exitDy=0;exitPerimeter=0;" edge="1" parent="1" source="nGtpQXwKpqpgP6k6MlAX-109" target="nGtpQXwKpqpgP6k6MlAX-105">
          <mxGeometry width="50" height="50" relative="1" as="geometry">
            <mxPoint x="690" y="740" as="sourcePoint" />
            <mxPoint x="740" y="690" as="targetPoint" />
          </mxGeometry>
        </mxCell>
        <mxCell id="nGtpQXwKpqpgP6k6MlAX-111" value="" style="endArrow=none;html=1;rounded=0;entryX=0.5;entryY=0;entryDx=0;entryDy=0;entryPerimeter=0;exitX=0.5;exitY=1;exitDx=0;exitDy=0;exitPerimeter=0;" edge="1" parent="1" source="nGtpQXwKpqpgP6k6MlAX-105" target="nGtpQXwKpqpgP6k6MlAX-104">
          <mxGeometry width="50" height="50" relative="1" as="geometry">
            <mxPoint x="610" y="620" as="sourcePoint" />
            <mxPoint x="660" y="570" as="targetPoint" />
          </mxGeometry>
        </mxCell>
        <mxCell id="nGtpQXwKpqpgP6k6MlAX-112" value="" style="endArrow=none;html=1;rounded=0;entryX=0.5;entryY=1;entryDx=0;entryDy=0;exitX=0.5;exitY=1;exitDx=0;exitDy=0;exitPerimeter=0;" edge="1" parent="1" source="nGtpQXwKpqpgP6k6MlAX-104" target="nGtpQXwKpqpgP6k6MlAX-108">
          <mxGeometry width="50" height="50" relative="1" as="geometry">
            <mxPoint x="610" y="520" as="sourcePoint" />
            <mxPoint x="660" y="470" as="targetPoint" />
          </mxGeometry>
        </mxCell>
        <mxCell id="nGtpQXwKpqpgP6k6MlAX-113" value="" style="endArrow=none;html=1;rounded=0;entryX=0.5;entryY=0;entryDx=0;entryDy=0;entryPerimeter=0;exitX=0.5;exitY=0;exitDx=0;exitDy=0;exitPerimeter=0;" edge="1" parent="1">
          <mxGeometry width="50" height="50" relative="1" as="geometry">
            <mxPoint x="739.76" y="360" as="sourcePoint" />
            <mxPoint x="739.76" y="320" as="targetPoint" />
          </mxGeometry>
        </mxCell>
        <mxCell id="nGtpQXwKpqpgP6k6MlAX-114" value="" style="endArrow=none;html=1;rounded=0;entryX=0.5;entryY=0;entryDx=0;entryDy=0;entryPerimeter=0;exitX=0.5;exitY=1;exitDx=0;exitDy=0;exitPerimeter=0;" edge="1" parent="1">
          <mxGeometry width="50" height="50" relative="1" as="geometry">
            <mxPoint x="739.76" y="240" as="sourcePoint" />
            <mxPoint x="739.76" y="200" as="targetPoint" />
          </mxGeometry>
        </mxCell>
        <mxCell id="nGtpQXwKpqpgP6k6MlAX-115" value="" style="endArrow=none;html=1;rounded=0;entryX=0.5;entryY=1;entryDx=0;entryDy=0;exitX=0.5;exitY=1;exitDx=0;exitDy=0;exitPerimeter=0;" edge="1" parent="1">
          <mxGeometry width="50" height="50" relative="1" as="geometry">
            <mxPoint x="739.76" y="120" as="sourcePoint" />
            <mxPoint x="739.76" y="80" as="targetPoint" />
          </mxGeometry>
        </mxCell>
        <mxCell id="nGtpQXwKpqpgP6k6MlAX-116" value="" style="endArrow=none;html=1;rounded=0;entryX=0.5;entryY=0;entryDx=0;entryDy=0;entryPerimeter=0;exitX=0.5;exitY=0;exitDx=0;exitDy=0;exitPerimeter=0;" edge="1" parent="1">
          <mxGeometry width="50" height="50" relative="1" as="geometry">
            <mxPoint x="499.78000000000003" y="720" as="sourcePoint" />
            <mxPoint x="499.78000000000003" y="680" as="targetPoint" />
          </mxGeometry>
        </mxCell>
        <mxCell id="nGtpQXwKpqpgP6k6MlAX-117" value="" style="endArrow=none;html=1;rounded=0;entryX=0.5;entryY=0;entryDx=0;entryDy=0;entryPerimeter=0;exitX=0.5;exitY=1;exitDx=0;exitDy=0;exitPerimeter=0;" edge="1" parent="1">
          <mxGeometry width="50" height="50" relative="1" as="geometry">
            <mxPoint x="499.78000000000003" y="600" as="sourcePoint" />
            <mxPoint x="499.78000000000003" y="560" as="targetPoint" />
          </mxGeometry>
        </mxCell>
        <mxCell id="nGtpQXwKpqpgP6k6MlAX-118" value="" style="endArrow=none;html=1;rounded=0;entryX=0.5;entryY=1;entryDx=0;entryDy=0;exitX=0.5;exitY=1;exitDx=0;exitDy=0;exitPerimeter=0;" edge="1" parent="1">
          <mxGeometry width="50" height="50" relative="1" as="geometry">
            <mxPoint x="499.78000000000003" y="480" as="sourcePoint" />
            <mxPoint x="499.78000000000003" y="440" as="targetPoint" />
          </mxGeometry>
        </mxCell>
        <mxCell id="nGtpQXwKpqpgP6k6MlAX-119" value="" style="endArrow=none;html=1;rounded=0;entryX=0.5;entryY=0;entryDx=0;entryDy=0;entryPerimeter=0;exitX=0.5;exitY=0;exitDx=0;exitDy=0;exitPerimeter=0;" edge="1" parent="1">
          <mxGeometry width="50" height="50" relative="1" as="geometry">
            <mxPoint x="499.54" y="360" as="sourcePoint" />
            <mxPoint x="499.54" y="320" as="targetPoint" />
          </mxGeometry>
        </mxCell>
        <mxCell id="nGtpQXwKpqpgP6k6MlAX-120" value="" style="endArrow=none;html=1;rounded=0;entryX=0.5;entryY=0;entryDx=0;entryDy=0;entryPerimeter=0;exitX=0.5;exitY=1;exitDx=0;exitDy=0;exitPerimeter=0;" edge="1" parent="1">
          <mxGeometry width="50" height="50" relative="1" as="geometry">
            <mxPoint x="499.54" y="240" as="sourcePoint" />
            <mxPoint x="499.54" y="200" as="targetPoint" />
          </mxGeometry>
        </mxCell>
        <mxCell id="nGtpQXwKpqpgP6k6MlAX-121" value="" style="endArrow=none;html=1;rounded=0;entryX=0.5;entryY=1;entryDx=0;entryDy=0;exitX=0.5;exitY=1;exitDx=0;exitDy=0;exitPerimeter=0;" edge="1" parent="1">
          <mxGeometry width="50" height="50" relative="1" as="geometry">
            <mxPoint x="499.54" y="120" as="sourcePoint" />
            <mxPoint x="499.54" y="80" as="targetPoint" />
          </mxGeometry>
        </mxCell>
        <mxCell id="nGtpQXwKpqpgP6k6MlAX-122" value="" style="endArrow=none;html=1;rounded=0;entryX=0.5;entryY=0;entryDx=0;entryDy=0;entryPerimeter=0;exitX=0.5;exitY=0;exitDx=0;exitDy=0;exitPerimeter=0;" edge="1" parent="1">
          <mxGeometry width="50" height="50" relative="1" as="geometry">
            <mxPoint x="499.8" y="840" as="sourcePoint" />
            <mxPoint x="499.8" y="800" as="targetPoint" />
          </mxGeometry>
        </mxCell>
        <mxCell id="nGtpQXwKpqpgP6k6MlAX-123" value="Начало" style="strokeWidth=2;html=1;shape=mxgraph.flowchart.terminator;whiteSpace=wrap;" vertex="1" parent="1">
          <mxGeometry x="920" y="40" width="200" height="40" as="geometry" />
        </mxCell>
        <mxCell id="nGtpQXwKpqpgP6k6MlAX-124" value="Обозначение&lt;br&gt;строки a,&lt;br&gt;пустой строки check&amp;nbsp;" style="rounded=0;whiteSpace=wrap;html=1;" vertex="1" parent="1">
          <mxGeometry x="920" y="120" width="200" height="80" as="geometry" />
        </mxCell>
        <mxCell id="nGtpQXwKpqpgP6k6MlAX-125" value="Ввод a" style="rounded=0;whiteSpace=wrap;html=1;" vertex="1" parent="1">
          <mxGeometry x="920" y="240" width="200" height="80" as="geometry" />
        </mxCell>
        <mxCell id="nGtpQXwKpqpgP6k6MlAX-126" value="Проход по символам строки" style="strokeWidth=2;html=1;shape=mxgraph.flowchart.loop_limit;whiteSpace=wrap;" vertex="1" parent="1">
          <mxGeometry x="920" y="360" width="200" height="80" as="geometry" />
        </mxCell>
        <mxCell id="nGtpQXwKpqpgP6k6MlAX-128" value="Если нет дубликатов в строке check" style="strokeWidth=2;html=1;shape=mxgraph.flowchart.decision;whiteSpace=wrap;" vertex="1" parent="1">
          <mxGeometry x="920" y="480" width="200" height="80" as="geometry" />
        </mxCell>
        <mxCell id="nGtpQXwKpqpgP6k6MlAX-129" value="Записать символ в строку check" style="rounded=0;whiteSpace=wrap;html=1;" vertex="1" parent="1">
          <mxGeometry x="920" y="600" width="200" height="80" as="geometry" />
        </mxCell>
        <mxCell id="nGtpQXwKpqpgP6k6MlAX-130" value="" style="strokeWidth=2;html=1;shape=mxgraph.flowchart.loop_limit;whiteSpace=wrap;rotation=-180;" vertex="1" parent="1">
          <mxGeometry x="920" y="720" width="200" height="80" as="geometry" />
        </mxCell>
        <mxCell id="nGtpQXwKpqpgP6k6MlAX-131" value="Вывод строки check" style="rounded=0;whiteSpace=wrap;html=1;" vertex="1" parent="1">
          <mxGeometry x="920" y="840" width="200" height="80" as="geometry" />
        </mxCell>
        <mxCell id="nGtpQXwKpqpgP6k6MlAX-132" value="Конец цикла" style="text;html=1;whiteSpace=wrap;strokeColor=none;fillColor=none;align=center;verticalAlign=middle;rounded=0;" vertex="1" parent="1">
          <mxGeometry x="990" y="745" width="60" height="30" as="geometry" />
        </mxCell>
        <mxCell id="nGtpQXwKpqpgP6k6MlAX-133" value="Конец" style="strokeWidth=2;html=1;shape=mxgraph.flowchart.terminator;whiteSpace=wrap;" vertex="1" parent="1">
          <mxGeometry x="920" y="960" width="200" height="40" as="geometry" />
        </mxCell>
        <mxCell id="nGtpQXwKpqpgP6k6MlAX-147" value="" style="endArrow=none;html=1;rounded=0;entryX=0.5;entryY=0;entryDx=0;entryDy=0;entryPerimeter=0;exitX=0.5;exitY=0;exitDx=0;exitDy=0;exitPerimeter=0;" edge="1" parent="1">
          <mxGeometry width="50" height="50" relative="1" as="geometry">
            <mxPoint x="1019.9200000000001" y="720" as="sourcePoint" />
            <mxPoint x="1019.9200000000001" y="680" as="targetPoint" />
          </mxGeometry>
        </mxCell>
        <mxCell id="nGtpQXwKpqpgP6k6MlAX-148" value="" style="endArrow=none;html=1;rounded=0;entryX=0.5;entryY=0;entryDx=0;entryDy=0;entryPerimeter=0;exitX=0.5;exitY=1;exitDx=0;exitDy=0;exitPerimeter=0;" edge="1" parent="1">
          <mxGeometry width="50" height="50" relative="1" as="geometry">
            <mxPoint x="1019.9200000000001" y="600" as="sourcePoint" />
            <mxPoint x="1019.9200000000001" y="560" as="targetPoint" />
          </mxGeometry>
        </mxCell>
        <mxCell id="nGtpQXwKpqpgP6k6MlAX-149" value="" style="endArrow=none;html=1;rounded=0;entryX=0.5;entryY=1;entryDx=0;entryDy=0;exitX=0.5;exitY=1;exitDx=0;exitDy=0;exitPerimeter=0;" edge="1" parent="1">
          <mxGeometry width="50" height="50" relative="1" as="geometry">
            <mxPoint x="1019.9200000000001" y="480" as="sourcePoint" />
            <mxPoint x="1019.9200000000001" y="440" as="targetPoint" />
          </mxGeometry>
        </mxCell>
        <mxCell id="nGtpQXwKpqpgP6k6MlAX-150" value="" style="endArrow=none;html=1;rounded=0;entryX=0.5;entryY=0;entryDx=0;entryDy=0;entryPerimeter=0;exitX=0.5;exitY=0;exitDx=0;exitDy=0;exitPerimeter=0;" edge="1" parent="1">
          <mxGeometry width="50" height="50" relative="1" as="geometry">
            <mxPoint x="1019.6800000000001" y="360" as="sourcePoint" />
            <mxPoint x="1019.6800000000001" y="320" as="targetPoint" />
          </mxGeometry>
        </mxCell>
        <mxCell id="nGtpQXwKpqpgP6k6MlAX-151" value="" style="endArrow=none;html=1;rounded=0;entryX=0.5;entryY=0;entryDx=0;entryDy=0;entryPerimeter=0;exitX=0.5;exitY=1;exitDx=0;exitDy=0;exitPerimeter=0;" edge="1" parent="1">
          <mxGeometry width="50" height="50" relative="1" as="geometry">
            <mxPoint x="1019.6800000000001" y="240" as="sourcePoint" />
            <mxPoint x="1019.6800000000001" y="200" as="targetPoint" />
          </mxGeometry>
        </mxCell>
        <mxCell id="nGtpQXwKpqpgP6k6MlAX-152" value="" style="endArrow=none;html=1;rounded=0;entryX=0.5;entryY=1;entryDx=0;entryDy=0;exitX=0.5;exitY=1;exitDx=0;exitDy=0;exitPerimeter=0;" edge="1" parent="1">
          <mxGeometry width="50" height="50" relative="1" as="geometry">
            <mxPoint x="1019.6800000000001" y="120" as="sourcePoint" />
            <mxPoint x="1019.6800000000001" y="80" as="targetPoint" />
          </mxGeometry>
        </mxCell>
        <mxCell id="nGtpQXwKpqpgP6k6MlAX-154" value="" style="endArrow=none;html=1;rounded=0;entryX=0.5;entryY=0;entryDx=0;entryDy=0;entryPerimeter=0;exitX=0.5;exitY=0;exitDx=0;exitDy=0;exitPerimeter=0;" edge="1" parent="1">
          <mxGeometry width="50" height="50" relative="1" as="geometry">
            <mxPoint x="1019.8" y="960" as="sourcePoint" />
            <mxPoint x="1019.8" y="920" as="targetPoint" />
          </mxGeometry>
        </mxCell>
        <mxCell id="nGtpQXwKpqpgP6k6MlAX-155" value="" style="endArrow=none;html=1;rounded=0;entryX=0.5;entryY=0;entryDx=0;entryDy=0;entryPerimeter=0;exitX=0.5;exitY=1;exitDx=0;exitDy=0;exitPerimeter=0;" edge="1" parent="1">
          <mxGeometry width="50" height="50" relative="1" as="geometry">
            <mxPoint x="1019.8" y="840" as="sourcePoint" />
            <mxPoint x="1019.8" y="800" as="targetPoint" />
          </mxGeometry>
        </mxCell>
      </root>
    </mxGraphModel>
  </diagram>
</mxfile>
